<?xml version="1.0" encoding="UTF-8"?>
<svg version="1.1" xmlns="http://www.w3.org/2000/svg" width="108" height="89">
<path d="M0 0 C0.73718262 0.47985352 1.47436523 0.95970703 2.23388672 1.45410156 C3.00748535 1.9797168 3.78108398 2.50533203 4.578125 3.046875 C6.2627524 4.15145118 7.94765632 5.25560572 9.6328125 6.359375 C10.49100586 6.92914063 11.34919922 7.49890625 12.23339844 8.0859375 C16.35119399 10.8011719 20.52734078 13.42207222 24.703125 16.046875 C25.4876001 16.54251953 26.2720752 17.03816406 27.08032227 17.54882812 C33.62976661 21.68604415 40.21594932 25.76071749 46.828125 29.796875 C46.498125 31.116875 46.168125 32.436875 45.828125 33.796875 C42.74620796 34.47020493 39.6623842 35.13436359 36.578125 35.796875 C35.70542969 35.98765625 34.83273438 36.1784375 33.93359375 36.375 C33.08925781 36.55546875 32.24492188 36.7359375 31.375 36.921875 C30.21242676 37.17324219 30.21242676 37.17324219 29.02636719 37.4296875 C26.828125 37.796875 26.828125 37.796875 22.828125 37.796875 C22.10205387 45.74476078 21.66609047 53.69328648 21.515625 61.671875 C21.47115234 62.84713745 21.47115234 62.84713745 21.42578125 64.04614258 C21.36715578 69.81281222 22.75527659 73.91807481 25.828125 78.796875 C26.158125 79.126875 26.488125 79.456875 26.828125 79.796875 C26.86876332 81.46304615 26.870846 83.13075595 26.828125 84.796875 C25.178125 85.456875 23.528125 86.116875 21.828125 86.796875 C19.25645907 84.56064376 18.39004571 83.14386276 17.828125 79.796875 C17.80054472 77.25572867 17.82758199 74.75195146 17.9140625 72.21484375 C17.93530182 71.48243973 17.95654114 70.75003571 17.97842407 69.99543762 C18.0245939 68.44796635 18.07351439 66.90057502 18.125 65.35327148 C18.20250248 63.00325104 18.26990348 60.65310195 18.3359375 58.30273438 C18.38220744 56.79425215 18.42906368 55.28578778 18.4765625 53.77734375 C18.49641205 53.08231247 18.5162616 52.38728119 18.53671265 51.67118835 C18.68836824 47.3042519 19.14214806 43.10367505 19.828125 38.796875 C18.343125 39.291875 18.343125 39.291875 16.828125 39.796875 C15.838125 47.716875 14.848125 55.636875 13.828125 63.796875 C-4.62250132 68.828864 -17.30390328 67.04064854 -34.0078125 58.61328125 C-35.05195312 58.01386719 -36.09609375 57.41445313 -37.171875 56.796875 C-38.15671875 56.3225 -39.1415625 55.848125 -40.15625 55.359375 C-42.67937728 52.1516783 -42.36232448 51.03596772 -42.0390625 47.04296875 C-41.73577041 44.76960829 -41.40385538 42.49992546 -41.046875 40.234375 C-40.81097656 38.51057617 -40.81097656 38.51057617 -40.5703125 36.75195312 C-39.41292268 28.52001805 -39.41292268 28.52001805 -38.171875 24.796875 C-39.27245239 24.38586548 -39.27245239 24.38586548 -40.39526367 23.96655273 C-44.76545506 22.12556206 -48.54412554 19.47480499 -52.484375 16.859375 C-53.32033203 16.32119141 -54.15628906 15.78300781 -55.01757812 15.22851562 C-55.80712891 14.70580078 -56.59667969 14.18308594 -57.41015625 13.64453125 C-58.13243408 13.17023682 -58.85471191 12.69594238 -59.59887695 12.20727539 C-60.11796631 11.74184326 -60.63705566 11.27641113 -61.171875 10.796875 C-61.171875 9.806875 -61.171875 8.816875 -61.171875 7.796875 C-54.18120704 6.3631637 -47.1884252 4.94013456 -40.1940918 3.52441406 C-37.81631609 3.04183069 -35.43902984 2.55682898 -33.06225586 2.06933594 C-29.64042811 1.3679364 -26.21691849 0.67533152 -22.79296875 -0.015625 C-21.73540878 -0.23436279 -20.67784882 -0.45310059 -19.58824158 -0.6784668 C-5.29775247 -3.53807497 -5.29775247 -3.53807497 0 0 Z " fill="#000000" transform="translate(61.171875,2.203125)"/>
<path d="M0 0 C5.91851822 2.70316938 11.4999309 5.84410934 17 9.3125 C17.97984863 9.92387817 17.97984863 9.92387817 18.97949219 10.54760742 C23.49606945 13.37901057 27.95017544 16.29277765 32.390625 19.2421875 C34.10551842 20.35765676 35.82347242 21.46817338 37.54345703 22.57577515 C39.21389137 23.66397709 40.86315018 24.78446627 42.51171875 25.90551758 C50.16352421 30.80555304 55.13038243 31.85200995 64 30 C64.79470703 29.87052979 65.58941406 29.74105957 66.40820312 29.60766602 C68.49282885 29.26401834 70.55592242 28.86396668 72.625 28.4375 C79.80581395 27 79.80581395 27 82 27 C80.95995683 22.58717697 80.95995683 22.58717697 77.8828125 19.453125 C73.93828454 17.46482635 69.83177065 16.23850139 65.61523438 14.98242188 C61.10546818 13.56768304 57.77655257 11.74923688 54 9 C54.33 8.34 54.66 7.68 55 7 C55.98742188 7.6084375 56.97484375 8.216875 57.9921875 8.84375 C62.51826465 11.43138142 67.21233312 12.71058561 72.21484375 14.06640625 C76.60782407 15.33474282 79.67942658 16.84232264 83 20 C84.45033876 22.90067751 84.13186691 25.45661852 84.125 28.6875 C84.12886719 30.48767578 84.12886719 30.48767578 84.1328125 32.32421875 C84 36 84 36 83.51171875 39.3671875 C82.8951244 43.74453671 82.74010178 48.02245715 82.6875 52.4375 C82.65849609 53.24509766 82.62949219 54.05269531 82.59960938 54.88476562 C82.53763183 60.80123763 83.8193219 65.00086873 87 70 C87.33 70.33 87.66 70.66 88 71 C88.04063832 72.66617115 88.042721 74.33388095 88 76 C86.35 76.66 84.7 77.32 83 78 C80.42833407 75.76376876 79.56192071 74.34698776 79 71 C78.97241972 68.45885367 78.99945699 65.95507646 79.0859375 63.41796875 C79.10717682 62.68556473 79.12841614 61.95316071 79.15029907 61.19856262 C79.1964689 59.65109135 79.24538939 58.10370002 79.296875 56.55639648 C79.37437748 54.20637604 79.44177848 51.85622695 79.5078125 49.50585938 C79.55408244 47.99737715 79.60093868 46.48891278 79.6484375 44.98046875 C79.66828705 44.28543747 79.6881366 43.59040619 79.70858765 42.87431335 C79.86024324 38.5073769 80.31402306 34.30680005 81 30 C79.515 30.495 79.515 30.495 78 31 C77.01 38.92 76.02 46.84 75 55 C56.54937368 60.031989 43.86797172 58.24377354 27.1640625 49.81640625 C26.11992187 49.21699219 25.07578125 48.61757813 24 48 C23.01515625 47.525625 22.0303125 47.05125 21.015625 46.5625 C18.49249772 43.3548033 18.80955052 42.23909272 19.1328125 38.24609375 C19.43610459 35.97273329 19.76801962 33.70305046 20.125 31.4375 C20.28226563 30.28830078 20.43953125 29.13910156 20.6015625 27.95507812 C21.75895232 19.72314305 21.75895232 19.72314305 23 16 C21.89942261 15.59007812 21.89942261 15.59007812 20.77661133 15.171875 C16.39714302 13.32351064 12.62677318 10.6365459 8.6875 8 C7.85154297 7.4534375 7.01558594 6.906875 6.15429688 6.34375 C5.36474609 5.8178125 4.57519531 5.291875 3.76171875 4.75 C3.03944092 4.27046875 2.31716309 3.7909375 1.57299805 3.296875 C1.05390869 2.86890625 0.53481934 2.4409375 0 2 C0 1.34 0 0.68 0 0 Z " fill="#010101" transform="translate(0,11)"/>
<path d="M0 0 C5.91851822 2.70316938 11.4999309 5.84410934 17 9.3125 C17.97984863 9.92387817 17.97984863 9.92387817 18.97949219 10.54760742 C23.49606945 13.37901057 27.95017544 16.29277765 32.390625 19.2421875 C34.10551842 20.35765676 35.82347242 21.46817338 37.54345703 22.57577515 C39.21389137 23.66397709 40.86315018 24.78446627 42.51171875 25.90551758 C50.16352421 30.80555304 55.13038243 31.85200995 64 30 C64.79470703 29.87052979 65.58941406 29.74105957 66.40820312 29.60766602 C68.49282885 29.26401834 70.55592242 28.86396668 72.625 28.4375 C79.80581395 27 79.80581395 27 82 27 C80.95995683 22.58717697 80.95995683 22.58717697 77.8828125 19.453125 C73.93828454 17.46482635 69.83177065 16.23850139 65.61523438 14.98242188 C61.10546818 13.56768304 57.77655257 11.74923688 54 9 C54.33 8.34 54.66 7.68 55 7 C55.98742188 7.6084375 56.97484375 8.216875 57.9921875 8.84375 C62.51826465 11.43138142 67.21233312 12.71058561 72.21484375 14.06640625 C76.60782407 15.33474282 79.67942658 16.84232264 83 20 C84.45033876 22.90067751 84.13186691 25.45661852 84.125 28.6875 C84.12886719 30.48767578 84.12886719 30.48767578 84.1328125 32.32421875 C84 36 84 36 83.51171875 39.3671875 C82.8951244 43.74453671 82.74010178 48.02245715 82.6875 52.4375 C82.65849609 53.24509766 82.62949219 54.05269531 82.59960938 54.88476562 C82.53763183 60.80123763 83.8193219 65.00086873 87 70 C87.33 70.33 87.66 70.66 88 71 C88.04063832 72.66617115 88.042721 74.33388095 88 76 C86.35 76.66 84.7 77.32 83 78 C80.42833407 75.76376876 79.56192071 74.34698776 79 71 C78.97241972 68.45885367 78.99945699 65.95507646 79.0859375 63.41796875 C79.10717682 62.68556473 79.12841614 61.95316071 79.15029907 61.19856262 C79.1964689 59.65109135 79.24538939 58.10370002 79.296875 56.55639648 C79.37437748 54.20637604 79.44177848 51.85622695 79.5078125 49.50585938 C79.55408244 47.99737715 79.60093868 46.48891278 79.6484375 44.98046875 C79.66828705 44.28543747 79.6881366 43.59040619 79.70858765 42.87431335 C79.86024324 38.5073769 80.31402306 34.30680005 81 30 C78.04136459 30.72351245 78.04136459 30.72351245 76.60913086 32.47363281 C74.57430453 34.40380034 72.97018752 34.77366262 70.25390625 35.421875 C68.87428711 35.75251953 68.87428711 35.75251953 67.46679688 36.08984375 C66.50837891 36.30769531 65.54996094 36.52554688 64.5625 36.75 C63.13067383 37.09998047 63.13067383 37.09998047 61.66992188 37.45703125 C54.36692973 39.16395874 51.22374381 38.9388133 44.75390625 34.9453125 C43.75166016 34.33042969 42.74941406 33.71554688 41.71679688 33.08203125 C40.67587891 32.43621094 39.63496094 31.79039063 38.5625 31.125 C36.50130353 29.85676849 34.44010566 28.58853924 32.37890625 27.3203125 C31.4669751 26.75586426 30.55504395 26.19141602 29.61547852 25.60986328 C27.08804871 24.0541952 24.54788375 22.52188837 22 21 C22.33 19.35 22.66 17.7 23 16 C21.89942261 15.59007812 21.89942261 15.59007812 20.77661133 15.171875 C16.39714302 13.32351064 12.62677318 10.6365459 8.6875 8 C7.85154297 7.4534375 7.01558594 6.906875 6.15429688 6.34375 C5.36474609 5.8178125 4.57519531 5.291875 3.76171875 4.75 C3.03944092 4.27046875 2.31716309 3.7909375 1.57299805 3.296875 C1.05390869 2.86890625 0.53481934 2.4409375 0 2 C0 1.34 0 0.68 0 0 Z " fill="#3B3B3B" transform="translate(0,11)"/>
<path d="M0 0 C3.1497173 1.08271532 5.75739775 2.46472984 8.5 4.3125 C18.01177053 10.4181508 28.19217693 13.18365117 39.375 13.125 C40.10460938 13.12886719 40.83421875 13.13273437 41.5859375 13.13671875 C46.157444 13.12855535 50.49000287 12.7496829 55 12 C55 13.98 55 15.96 55 18 C40.37120639 23.10943311 26.36882315 22.10073524 12.49633789 15.48071289 C2.87824234 10.76138382 2.87824234 10.76138382 -1 7 C-0.8125 3.25 -0.8125 3.25 0 0 Z " fill="#2C2C2C" transform="translate(20,48)"/>
<path d="M0 0 C1.485 0.8353125 1.485 0.8353125 3 1.6875 C7.87971723 4.16678182 13.01501219 5.62934648 18.27539062 7.07299805 C22.64355101 8.33576852 25.69678513 9.86474521 29 13 C30.45033876 15.90067751 30.13186691 18.45661852 30.125 21.6875 C30.12886719 23.48767578 30.12886719 23.48767578 30.1328125 25.32421875 C30 29 30 29 29.51171875 32.3671875 C28.8951244 36.74453671 28.74010178 41.02245715 28.6875 45.4375 C28.64399414 46.64889648 28.64399414 46.64889648 28.59960938 47.88476562 C28.53763183 53.80123763 29.8193219 58.00086873 33 63 C33.33 63.33 33.66 63.66 34 64 C34.04063832 65.66617115 34.042721 67.33388095 34 69 C31.525 69.99 31.525 69.99 29 71 C26.43052163 68.76567098 25.5649429 67.34309997 25 64 C24.97258044 61.55467344 25.0101242 59.10836734 25.0859375 56.6640625 C25.10717682 55.94826019 25.12841614 55.23245789 25.15029907 54.4949646 C25.19650682 52.97686605 25.24543064 51.45884808 25.296875 49.94091797 C25.37355647 47.66779163 25.44145613 45.39454227 25.5078125 43.12109375 C25.55410734 41.63539848 25.60097902 40.14972106 25.6484375 38.6640625 C25.67073425 37.93382874 25.69303101 37.20359497 25.71600342 36.45123291 C25.83851534 32.92279105 26.0317181 29.42855844 26.40332031 25.91699219 C26.53061523 24.67336914 26.65791016 23.42974609 26.7890625 22.1484375 C26.9226416 21.05450684 27.0562207 19.96057617 27.19384766 18.83349609 C27.25426625 15.89834618 27.25426625 15.89834618 25.25683594 13.71337891 C23.15047621 12.11424081 21.6008208 11.22187122 19.1015625 10.4375 C18.37453125 10.19773437 17.6475 9.95796875 16.8984375 9.7109375 C16.14820312 9.47632813 15.39796875 9.24171875 14.625 9 C9.16657855 7.27529044 4.53405382 5.56966777 0 2 C0 1.34 0 0.68 0 0 Z " fill="#EFC64B" transform="translate(54,18)"/>
<path d="M0 0 C5.91851822 2.70316938 11.4999309 5.84410934 17 9.3125 C17.97984863 9.92387817 17.97984863 9.92387817 18.97949219 10.54760742 C23.49606945 13.37901057 27.95017544 16.29277765 32.390625 19.2421875 C34.10551842 20.35765676 35.82347242 21.46817338 37.54345703 22.57577515 C39.21389137 23.66397709 40.86315018 24.78446627 42.51171875 25.90551758 C50.16352421 30.80555304 55.13038243 31.85200995 64 30 C64.79470703 29.87052979 65.58941406 29.74105957 66.40820312 29.60766602 C68.49282885 29.26401834 70.55592242 28.86396668 72.625 28.4375 C79.80581395 27 79.80581395 27 82 27 C82 27.99 82 28.98 82 30 C77.77387957 30.86972852 73.54373675 31.7180446 69.3125 32.5625 C67.51522461 32.9327832 67.51522461 32.9327832 65.68164062 33.31054688 C64.52470703 33.53935547 63.36777344 33.76816406 62.17578125 34.00390625 C61.11270752 34.21861572 60.04963379 34.4333252 58.9543457 34.65454102 C54.4282482 35.18378884 51.20500603 34.40855145 47.3984375 31.9609375 C46.74883057 31.5486792 46.09922363 31.1364209 45.42993164 30.71166992 C44.7518042 30.27056885 44.07367676 29.82946777 43.375 29.375 C42.66786865 28.92423096 41.9607373 28.47346191 41.23217773 28.0090332 C39.14993813 26.68005979 37.07417806 25.34151075 35 24 C27.49862001 19.13624362 27.49862001 19.13624362 19.75 14.6875 C15.33427989 12.28186089 11.13759416 9.57181852 6.9375 6.8125 C6.25719727 6.37188232 5.57689453 5.93126465 4.87597656 5.47729492 C3.21342498 4.37225457 1.6013293 3.19203037 0 2 C0 1.34 0 0.68 0 0 Z " fill="#2A2A2A" transform="translate(0,11)"/>
<path d="M0 0 C2.49398774 2.49398774 3.10613333 4.83552462 4.21875 8.125 C4.94192432 10.19575753 4.94192432 10.19575753 7 12 C7.125 14.625 7.125 14.625 7 17 C5.35 17.66 3.7 18.32 2 19 C-0.55977217 16.77411116 -1.40088444 15.31817851 -2 12 C-2.06688591 10.08438746 -2.08531719 8.16664408 -2.0625 6.25 C-2.05347656 5.26515625 -2.04445313 4.2803125 -2.03515625 3.265625 C-2.02355469 2.51796875 -2.01195313 1.7703125 -2 1 C-1.34 0.67 -0.68 0.34 0 0 Z " fill="#EDC349" transform="translate(81,70)"/>
<path d="M0 0 C-0.33 0.99 -0.66 1.98 -1 3 C-2.79418945 3.70776367 -2.79418945 3.70776367 -5.11328125 4.16796875 C-5.94923828 4.33876953 -6.78519531 4.50957031 -7.64648438 4.68554688 C-8.96616211 4.93401367 -8.96616211 4.93401367 -10.3125 5.1875 C-11.61477539 5.45336914 -11.61477539 5.45336914 -12.94335938 5.72460938 C-16.75326673 6.48191252 -20.09059486 7 -24 7 C-24 6.01 -24 5.02 -24 4 C-20.56336386 3.32882733 -17.12555959 2.66383929 -13.6875 2 C-12.71103516 1.80921875 -11.73457031 1.6184375 -10.72851562 1.421875 C-9.79072266 1.24140625 -8.85292969 1.0609375 -7.88671875 0.875 C-7.02264404 0.70742188 -6.15856934 0.53984375 -5.26831055 0.3671875 C-3 0 -3 0 0 0 Z " fill="#2B2A29" transform="translate(108,33)"/>
<path d="M0 0 C1.093125 0.598125 2.18625 1.19625 3.3125 1.8125 C8.32750975 4.3425139 13.56202852 5.68049221 19 7 C19 7.99 19 8.98 19 10 C12.10214496 8.44037469 5.45811767 6.73870961 0 2 C0 1.34 0 0.68 0 0 Z " fill="#BA993A" transform="translate(54,18)"/>
<path d="M0 0 C4.40147657 0.50302589 6.75395419 2.02445801 10 5 C11.35439668 7.70879335 11.06501451 10.00933268 11 13 C10.34 13 9.68 13 9 13 C8.814375 11.9275 8.62875 10.855 8.4375 9.75 C7.76923865 7.30960856 7.3033734 6.2431191 5.30859375 4.64453125 C3.58340249 3.67912119 1.79400985 2.83056012 0 2 C0 1.34 0 0.68 0 0 Z " fill="#D8B244" transform="translate(73,26)"/>
</svg>
